<?xml version="1.0" encoding="UTF-8"?>
<svg xmlns="http://www.w3.org/2000/svg" version="1.1" viewBox="0 0 66 66">
  <defs>
    <style>
      .cls-1 {
        fill: #a32869;
      }

      .cls-2, .cls-3 {
        opacity: .2;
      }

      .cls-4 {
        fill: #5f3439;
      }

      .cls-5 {
        fill: #bb5089;
      }

      .cls-3 {
        isolation: isolate;
      }

      .cls-6 {
        fill: #f2fdff;
      }
    </style>
  </defs>
  <!-- Generator: Adobe Illustrator 28.6.0, SVG Export Plug-In . SVG Version: 1.2.0 Build 709)  -->
  <g>
    <g id="Icons">
      <g id="Note">
        <g id="Circle_Shadow">
          <circle class="cls-1" cx="33" cy="34" r="31"/>
        </g>
        <g id="Circle">
          <path class="cls-5" d="M64,32c0,.4,0,.8,0,1.2,0,1.4-.2,2.8-.4,4.1-2.2,12.6-11.9,22.5-24.3,25.1,0,0,0,0-.1,0-.4,0-.8.1-1.2.2,0,0-.2,0-.3,0-1.1.2-2.2.3-3.4.3-.4,0-.8,0-1.3,0-17.1,0-31-13.9-31-31S15.9,1,33,1s31,13.9,31,31Z"/>
        </g>
        <path class="cls-3" d="M64,33.2c0,1.4-.2,2.8-.4,4.1-2.2,12.6-11.9,22.5-24.3,25.1,0,0,0,0-.1,0-.4,0-.8.1-1.2.2,0,0-.2,0-.3,0-1.1.2-2.2.3-3.4.3l-11-11L44.6,14l19.4,19.2Z"/>
        <g id="Note-2">
          <path class="cls-6" d="M42.8,13.7l-26.8,8c-1.1.3-1.7,1.4-1.3,2.5l8,26.8c.3,1.1,1.4,1.7,2.5,1.3l18.2-5.4,7.4-13.7-5.4-18.2c-.3-1.1-1.4-1.7-2.5-1.3Z"/>
        </g>
        <g id="Shading" class="cls-2">
          <path class="cls-4" d="M40.8,38.3l2.6,8.6,7.4-13.7-8.6,2.6c-1.1.3-1.7,1.4-1.3,2.5ZM28,44.2l8.6-2.6c.5-.2.8-.7.7-1.2h0c-.2-.5-.7-.8-1.2-.7l-8.6,2.6c-.5.2-.8.7-.7,1.2h0c.2.5.7.8,1.2.7ZM42,31.7l-16.3,4.9c-.5.2-.8.7-.7,1.2h0c.2.5.7.8,1.2.7l16.3-4.9c.5-.2.8-.7.7-1.2h0c-.2-.5-.7-.8-1.2-.7ZM40.2,25.9l-16.3,4.9c-.5.2-.8.7-.7,1.2h0c.2.5.7.8,1.2.7l16.3-4.9c.5-.2.8-.7.7-1.2h0c-.2-.5-.7-.8-1.2-.7ZM34.7,21.3l-12.5,3.7c-.5.2-.8.7-.7,1.2h0c.2.5.7.8,1.2.7l12.5-3.7c.5-.2.8-.7.7-1.2h0c-.2-.5-.7-.8-1.2-.7Z"/>
        </g>
      </g>
    </g>
  </g>
</svg>